<svg xmlns="http://www.w3.org/2000/svg" width="720" height="420" viewBox="0 0 720 420" font-family="-apple-system, BlinkMacSystemFont, 'Segoe UI', 'Noto Sans KR', 'Apple SD Gothic Neo', 'Malgun Gothic', sans-serif">
  <rect width="720" height="420" fill="#fbfbf9"/>
  <text x="20.0" y="30.0" font-size="16" fill="#24292f" text-anchor="start" font-weight="600">n이 커질 때 걸린 시간 — 로그-로그 축</text>
  <text x="20.0" y="50.0" font-size="11.5" fill="#6e7781" text-anchor="start" font-weight="400">기울기가 곧 복잡도 지수다 (2.0이면 n^2, 1.0이면 n)</text>
  <line x1="78.0" y1="362.0" x2="696.0" y2="362.0" stroke="#dfe1e4" stroke-width="1" stroke-dasharray="none"/>
  <text x="68.0" y="366.0" font-size="10.5" fill="#6e7781" text-anchor="end" font-weight="400">0.1</text>
  <line x1="78.0" y1="290.0" x2="696.0" y2="290.0" stroke="#dfe1e4" stroke-width="1" stroke-dasharray="none"/>
  <text x="68.0" y="294.0" font-size="10.5" fill="#6e7781" text-anchor="end" font-weight="400">1</text>
  <line x1="78.0" y1="218.0" x2="696.0" y2="218.0" stroke="#dfe1e4" stroke-width="1" stroke-dasharray="none"/>
  <text x="68.0" y="222.0" font-size="10.5" fill="#6e7781" text-anchor="end" font-weight="400">10</text>
  <line x1="78.0" y1="146.0" x2="696.0" y2="146.0" stroke="#dfe1e4" stroke-width="1" stroke-dasharray="none"/>
  <text x="68.0" y="150.0" font-size="10.5" fill="#6e7781" text-anchor="end" font-weight="400">100</text>
  <line x1="78.0" y1="74.0" x2="696.0" y2="74.0" stroke="#dfe1e4" stroke-width="1" stroke-dasharray="none"/>
  <text x="68.0" y="78.0" font-size="10.5" fill="#6e7781" text-anchor="end" font-weight="400">1K</text>
  <line x1="78.0" y1="74.0" x2="78.0" y2="362.0" stroke="#dfe1e4" stroke-width="1" stroke-dasharray="2 4"/>
  <text x="78.0" y="380.0" font-size="10.5" fill="#6e7781" text-anchor="middle" font-weight="400">1,000</text>
  <line x1="284.0" y1="74.0" x2="284.0" y2="362.0" stroke="#dfe1e4" stroke-width="1" stroke-dasharray="2 4"/>
  <text x="284.0" y="380.0" font-size="10.5" fill="#6e7781" text-anchor="middle" font-weight="400">2,000</text>
  <line x1="490.0" y1="74.0" x2="490.0" y2="362.0" stroke="#dfe1e4" stroke-width="1" stroke-dasharray="2 4"/>
  <text x="490.0" y="380.0" font-size="10.5" fill="#6e7781" text-anchor="middle" font-weight="400">4,000</text>
  <line x1="696.0" y1="74.0" x2="696.0" y2="362.0" stroke="#dfe1e4" stroke-width="1" stroke-dasharray="2 4"/>
  <text x="696.0" y="380.0" font-size="10.5" fill="#6e7781" text-anchor="middle" font-weight="400">8,000</text>
  <line x1="78.0" y1="362.0" x2="696.0" y2="362.0" stroke="#6e7781" stroke-width="1" stroke-dasharray="none"/>
  <line x1="78.0" y1="74.0" x2="78.0" y2="362.0" stroke="#6e7781" stroke-width="1" stroke-dasharray="none"/>
  <text x="387.0" y="406.0" font-size="11.5" fill="#6e7781" text-anchor="middle" font-weight="400">n (원소 개수)</text>
  <text x="20.0" y="60.0" font-size="11.5" fill="#6e7781" text-anchor="start" font-weight="400">시간 (ms)</text>
  <polyline points="78.0,260.6 284.0,218.8 490.0,175.7 696.0,131.7" fill="none" stroke="#0072B2" stroke-width="2.2" stroke-dasharray="none" stroke-linejoin="round" stroke-linecap="round"/>
  <circle cx="78.0" cy="260.6" r="3.4" fill="#0072B2"/>
  <circle cx="284.0" cy="218.8" r="3.4" fill="#0072B2"/>
  <circle cx="490.0" cy="175.7" r="3.4" fill="#0072B2"/>
  <circle cx="696.0" cy="131.7" r="3.4" fill="#0072B2"/>
  <text x="690.0" y="120.7" font-size="11" fill="#0072B2" text-anchor="end" font-weight="600">기울기 1.98</text>
  <polyline points="78.0,243.0 284.0,200.1 490.0,156.3 696.0,111.6" fill="none" stroke="#E69F00" stroke-width="2.2" stroke-dasharray="7 4" stroke-linejoin="round" stroke-linecap="round"/>
  <circle cx="78.0" cy="243.0" r="3.4" fill="#E69F00"/>
  <circle cx="284.0" cy="200.1" r="3.4" fill="#E69F00"/>
  <circle cx="490.0" cy="156.3" r="3.4" fill="#E69F00"/>
  <circle cx="696.0" cy="111.6" r="3.4" fill="#E69F00"/>
  <text x="690.0" y="100.6" font-size="11" fill="#E69F00" text-anchor="end" font-weight="600">기울기 2.02</text>
  <polyline points="78.0,320.5 284.0,292.4 490.0,266.4 696.0,240.1" fill="none" stroke="#009E73" stroke-width="2.2" stroke-dasharray="2 3" stroke-linejoin="round" stroke-linecap="round"/>
  <circle cx="78.0" cy="320.5" r="3.4" fill="#009E73"/>
  <circle cx="284.0" cy="292.4" r="3.4" fill="#009E73"/>
  <circle cx="490.0" cy="266.4" r="3.4" fill="#009E73"/>
  <circle cx="696.0" cy="240.1" r="3.4" fill="#009E73"/>
  <text x="690.0" y="229.1" font-size="11" fill="#009E73" text-anchor="end" font-weight="600">기울기 1.24</text>
  <line x1="78.0" y1="386.0" x2="100.0" y2="386.0" stroke="#0072B2" stroke-width="2.4" stroke-dasharray="none"/>
  <circle cx="89.0" cy="386.0" r="3" fill="#0072B2"/>
  <text x="106.0" y="390.0" font-size="11.5" fill="#24292f" text-anchor="start" font-weight="400">insertionSort</text>
  <line x1="209.8" y1="386.0" x2="231.8" y2="386.0" stroke="#E69F00" stroke-width="2.4" stroke-dasharray="7 4"/>
  <circle cx="220.8" cy="386.0" r="3" fill="#E69F00"/>
  <text x="237.8" y="390.0" font-size="11.5" fill="#24292f" text-anchor="start" font-weight="400">bubbleSort</text>
  <line x1="321.8" y1="386.0" x2="343.8" y2="386.0" stroke="#009E73" stroke-width="2.4" stroke-dasharray="2 3"/>
  <circle cx="332.8" cy="386.0" r="3" fill="#009E73"/>
  <text x="349.8" y="390.0" font-size="11.5" fill="#24292f" text-anchor="start" font-weight="400">blockSort</text>
</svg>
